<?xml version="1.0" encoding="utf-8"?>
<!-- Generator: Adobe Illustrator 16.0.0, SVG Export Plug-In . SVG Version: 6.00 Build 0)  -->
<!DOCTYPE svg PUBLIC "-//W3C//DTD SVG 1.1//EN" "http://www.w3.org/Graphics/SVG/1.1/DTD/svg11.dtd">
<svg version="1.1" id="Layer_1" xmlns="http://www.w3.org/2000/svg" xmlns:xlink="http://www.w3.org/1999/xlink" x="0px" y="0px"
	 width="612px" height="792px" viewBox="0 0 612 792" enable-background="new 0 0 612 792" xml:space="preserve">
<g>
	<path fill="#FEDD3E" d="M512.233,338.858c-40.061,0-79.466,0-119.118,0c34.104,50.918,18.221,109.545-17.766,140.079
		c-37.186,31.551-91.325,33.662-129.941,4.934c-19.524-14.525-32.918-33.434-39.175-56.918
		c-8.345-31.323-2.896-60.612,15.352-88.056c-40.042,0-79.376,0-118.841,0c-0.104,1.547-0.247,2.694-0.247,3.841
		c-0.011,60.656-0.277,121.315,0.081,181.97c0.255,43.175,36.841,78.792,80.073,78.801c83.153,0.017,166.306,0.014,249.459,0.002
		c43.968-0.007,80.319-36.138,80.382-80.067c0.085-59.823,0.023-119.647,0.01-179.471
		C512.501,342.226,512.322,340.479,512.233,338.858z"/>
	<path fill="#FEDD3E" d="M104.482,325.957c41.822,0.023,83.645,0.062,125.466-0.062c1.704-0.005,3.749-1.157,5.056-2.389
		c40.549-38.21,103.018-38.517,143.731-0.788c1.931,1.789,5.115,3.132,7.724,3.145C426.614,326.06,466.771,326,506.927,326
		c1.653,0,3.306,0,5.147,0c0.168-1.427,0.417-2.558,0.418-3.688c0.025-17.495,0.323-34.997-0.042-52.485
		c-0.899-43.081-37.046-78.324-80.057-78.335c-71.98-0.019-143.962-0.005-215.943-0.005c-2.089,0-4.179,0-6.796,0
		c0,34.354,0,67.934,0,101.51c-5.748,0-10.944,0-16.702,0c0-34.029,0-67.573,0-101.123c-3.985,0-7.381,0-11.302,0
		c0,33.964,0,67.544,0,101.125c-5.742,0-10.938,0-16.542,0c0-33.258,0-66.03,0-98.822c-10.404,0.577-11.941,2.087-11.941,11.341
		c0,27.326,0,54.652,0,81.979c0,1.901,0,3.803,0,5.689c-5.822,0-10.754,0-16.353,0c0-28.935,0-57.575,0-86.633
		c-18.029,11.559-32.554,35.266-33.66,56.719c-0.959,18.612-0.503,37.297-0.667,55.949c-0.019,2.128-0.002,4.255-0.002,6.311
		C103.531,325.761,104.006,325.957,104.482,325.957z M405.852,238.776c0.085-7.694,4.926-13.03,12.667-13.164
		c14.651-0.254,29.313-0.252,43.965-0.001c7.662,0.132,12.593,5.496,12.649,13.227c0.108,14.655,0.104,29.312,0.002,43.969
		c-0.055,7.89-5.334,13.121-13.222,13.168c-14.322,0.086-28.646,0.089-42.969-0.001c-7.888-0.05-12.999-5.271-13.092-13.229
		c-0.085-7.327-0.018-14.656-0.018-21.984C405.834,253.432,405.771,246.104,405.852,238.776z"/>
	<path fill="#FEDD3E" d="M307.105,318.486c-44.436,0.016-80.715,36.158-80.937,80.634c-0.223,44.607,36.165,81.046,80.932,81.047
		c44.976,0.001,81.036-35.938,81.06-80.784C388.184,354.654,351.93,318.471,307.105,318.486z M307.487,458.999
		c-32.888-0.007-59.51-26.806-59.487-59.882c0.022-32.714,26.704-59.292,59.515-59.283c33.028,0.008,59.505,26.63,59.485,59.812
		C366.98,432.256,340.158,459.007,307.487,458.999z"/>
</g>
</svg>
