<?xml version="1.0" encoding="utf-8"?>
<!-- Generator: Adobe Illustrator 16.0.0, SVG Export Plug-In . SVG Version: 6.00 Build 0)  -->
<!DOCTYPE svg PUBLIC "-//W3C//DTD SVG 1.1//EN" "http://www.w3.org/Graphics/SVG/1.1/DTD/svg11.dtd">
<svg version="1.1" id="Layer_1" xmlns="http://www.w3.org/2000/svg" xmlns:xlink="http://www.w3.org/1999/xlink" x="0px" y="0px"
	 width="673px" height="100px" viewBox="0 0 673 100" enable-background="new 0 0 673 100" xml:space="preserve">
<g enable-background="new    ">
	<path fill="#FFFFFF" d="M43.851,64.88c5.28,0,7.86-2.939,8.34-6.06c0.36-4.439-3.3-6.54-7.02-7.38l-5.34-1.319
		c-8.76-2.221-10.08-7.2-10.08-10.8c0-6.96,6.36-11.64,13.379-11.64c7.56,0,13.319,4.68,13.319,12.119c-0.96,0-4.62,0-5.58,0
		c0-4.14-3.3-6.779-7.8-6.779c-4.02,0-7.74,2.46-7.74,6.24c0,1.8,0.66,4.499,5.88,5.76l5.4,1.319c7.74,1.98,11.879,6.36,11.04,12.96
		c-0.72,5.939-5.7,10.799-13.8,10.799c-8.459,0-14.459-6.06-14.459-12.539c0.9,0,4.68,0,5.58,0
		C35.031,61.16,38.631,64.88,43.851,64.88z"/>
	<path fill="#FFFFFF" d="M78.171,40.881c4.26,0,8.159,1.62,10.799,4.5l-4.14,3.48c-1.68-1.681-4.08-2.641-6.66-2.641
		c-5.04,0-9.42,3.54-9.42,9.18s4.38,9.42,9.42,9.42c2.58,0,4.979-1.021,6.66-2.76l4.2,3.479c-2.64,2.88-6.54,4.56-10.859,4.56
		c-7.98,0-14.82-5.819-14.82-14.699S70.191,40.881,78.171,40.881z"/>
	<path fill="#FFFFFF" d="M121.55,57.561H98.811c0.66,4.68,4.32,7.619,9.06,7.619c3.36,0,6.48-1.56,8.04-4.319
		c1.44,0.6,3.18,1.2,4.68,1.8c-2.4,4.92-7.5,7.439-12.9,7.439c-7.979,0-14.339-5.819-14.339-14.699s6.36-14.52,14.339-14.52
		c7.98,0,13.92,5.64,13.92,14.52C121.61,56.061,121.61,56.961,121.55,57.561z M116.21,53.301c-0.66-4.68-4.02-7.5-8.52-7.5
		c-4.62,0-8.219,2.82-8.879,7.5H116.21z"/>
	<path fill="#FFFFFF" d="M134.031,69.5h-5.459V41.481h5.459v4.199c1.68-3.359,5.7-4.8,8.76-4.8c6.959,0,10.799,4.561,10.799,12.42
		V69.5c-0.9,0-4.62,0-5.459,0V53.66c0-4.68-2.34-7.439-6.18-7.439c-3.96,0-7.92,2.22-7.92,8.16V69.5z"/>
	<path fill="#FFFFFF" d="M188.689,57.561H165.95c0.66,4.68,4.32,7.619,9.06,7.619c3.36,0,6.48-1.56,8.04-4.319
		c1.44,0.6,3.18,1.2,4.68,1.8c-2.4,4.92-7.5,7.439-12.899,7.439c-7.98,0-14.34-5.819-14.34-14.699s6.36-14.52,14.34-14.52
		c7.979,0,13.919,5.64,13.919,14.52C188.749,56.061,188.749,56.961,188.689,57.561z M183.35,53.301c-0.66-4.68-4.02-7.5-8.52-7.5
		c-4.62,0-8.22,2.82-8.88,7.5H183.35z"/>
	<path fill="#FFFFFF" d="M194.57,48.021c0.42-4.079,4.74-7.14,9.72-7.14c4.74,0,9.239,2.221,9.719,7.92h-5.22
		c-0.3-2.1-2.22-3.18-4.38-3.18c-2.04,0-3.78,1.02-4.2,2.52c-0.24,0.9-0.24,1.561,0.06,2.22c0.54,1.141,1.86,1.74,3.3,2.16
		l4.14,1.021c5.819,1.439,7.259,4.979,7.259,8.159c0,5.22-5.04,8.399-10.859,8.399c-5.04,0-10.26-3.239-10.439-8.999h4.979
		c0.18,1.2,0.96,2.52,2.28,3.18c1.2,0.72,2.64,1.08,4.439,0.96c2.52-0.18,4.2-1.62,4.26-3.66c0.06-2.04-1.68-3.06-3.72-3.54
		l-3.84-0.899C196.97,55.761,194.09,53.181,194.57,48.021z"/>
	<path fill="#FFFFFF" d="M253.07,31.462h-3.06c-4.5,0-5.28,3.6-5.22,7.199v2.82h6.479v4.619h-6.479V69.5h-5.52V46.101h-5.399v-4.619
		h5.399v-2.82c0-7.38,3.18-12.419,10.74-12.419h3.06V31.462z"/>
	<path fill="#FFFFFF" d="M262.849,69.5h-5.459V41.481h5.459v6.3c1.44-4.92,4.14-6.9,7.8-6.9c1.98,0,4.08,0.54,4.86,1.08l-0.84,5.1
		c-1.5-0.72-3-0.96-4.14-0.96c-5.4,0-7.68,5.76-7.68,13.2V69.5z"/>
	<path fill="#FFFFFF" d="M278.509,55.4c0-8.88,6.66-14.52,14.64-14.52c7.979,0,14.699,5.64,14.699,14.52S301.128,70.1,293.149,70.1
		C285.169,70.1,278.509,64.28,278.509,55.4z M302.389,55.4c0-5.64-4.2-9.18-9.24-9.18c-5.04,0-9.24,3.54-9.24,9.18
		c0,5.7,4.2,9.42,9.24,9.42C298.188,64.82,302.389,61.101,302.389,55.4z"/>
	<path fill="#FFFFFF" d="M339.888,54.381V69.5c-0.84,0-4.56,0-5.459,0V53.601c0-4.62-2.4-7.38-6.06-7.38c-3.9,0-7.8,2.28-7.8,8.16
		V69.5h-5.459V41.481h5.459v4.199c1.5-3.119,5.46-4.499,7.74-4.68c1.08-0.06,2.1,0,3.06,0.181c3.54,0.539,6,2.399,7.32,5.459
		c2.579-4.979,6.959-5.76,9.72-5.76c7.02,0,10.799,4.561,10.799,12.42V69.5h-5.459V53.66c0-4.619-2.4-7.439-6.42-7.439
		C342.708,46.161,339.888,49.701,339.888,54.381z"/>
	<path fill="#FFFFFF" d="M396.349,41.481v4.619h-5.94V69.5h-5.459V46.101h-5.04v-4.619h5.04v-10.56h5.459v10.56H396.349z"/>
	<path fill="#FFFFFF" d="M407.988,69.5h-5.46V26.242h5.46v19.438c1.68-3.359,6.18-4.8,9.239-4.8c7.021,0,11.4,4.561,11.34,12.42
		V69.5c-0.899,0-4.56,0-5.46,0V53.66c0-4.619-2.76-7.439-6.6-7.439s-8.52,2.16-8.52,8.16V69.5z"/>
	<path fill="#FFFFFF" d="M463.666,57.561h-22.738c0.659,4.68,4.319,7.619,9.06,7.619c3.359,0,6.479-1.56,8.039-4.319
		c1.44,0.6,3.18,1.2,4.68,1.8c-2.399,4.92-7.499,7.439-12.899,7.439c-7.979,0-14.339-5.819-14.339-14.699s6.359-14.52,14.339-14.52
		s13.92,5.64,13.92,14.52C463.727,56.061,463.727,56.961,463.666,57.561z M458.326,53.301c-0.659-4.68-4.02-7.5-8.52-7.5
		c-4.619,0-8.22,2.82-8.879,7.5H458.326z"/>
	<path fill="#FFFFFF" d="M499.307,64.88c5.28,0,7.859-2.939,8.34-6.06c0.36-4.439-3.3-6.54-7.02-7.38l-5.34-1.319
		c-8.76-2.221-10.08-7.2-10.08-10.8c0-6.96,6.36-11.64,13.38-11.64c7.56,0,13.319,4.68,13.319,12.119c-0.96,0-4.62,0-5.58,0
		c0-4.14-3.3-6.779-7.799-6.779c-4.021,0-7.74,2.46-7.74,6.24c0,1.8,0.66,4.499,5.88,5.76l5.399,1.319
		c7.74,1.98,11.88,6.36,11.04,12.96c-0.72,5.939-5.7,10.799-13.8,10.799c-8.459,0-14.459-6.06-14.459-12.539c0.899,0,4.68,0,5.579,0
		C490.487,61.16,494.087,64.88,499.307,64.88z"/>
	<path fill="#FFFFFF" d="M533.867,41.481v4.619h-5.94V69.5h-5.459V46.101h-5.04v-4.619h5.04v-10.56h5.459v10.56H533.867z"/>
	<path fill="#FFFFFF" d="M559.187,41.481h5.46V69.5h-5.46v-4.2c-1.68,3.36-5.64,4.8-8.7,4.8c-7.02,0-10.859-4.56-10.799-12.419
		V41.481h5.459V57.32c0,4.68,2.28,7.439,6.12,7.439c3.96,0,7.92-2.159,7.92-8.159V41.481z"/>
	<path fill="#FFFFFF" d="M595.906,65.18c-1.86,3.181-5.94,4.92-9.84,4.92c-7.68,0-14.159-5.76-14.159-14.639
		c0-8.94,6.419-14.58,14.099-14.58c4.141,0,8.04,1.62,9.9,4.8V26.242h5.459V69.5h-5.459V65.18z M586.546,46.221
		c-5.039,0-9.06,3.6-9.06,9.18c0,5.52,4.021,9.359,9.06,9.359c4.92,0,9.3-3.42,9.3-9.359
		C595.846,49.4,591.046,46.221,586.546,46.221z"/>
	<path fill="#FFFFFF" d="M613.187,27.622c2.1,0,3.78,1.5,3.78,3.539c0,2.04-1.681,3.54-3.78,3.54c-2.04,0-3.78-1.5-3.78-3.54
		C609.406,29.122,611.146,27.622,613.187,27.622z M615.887,41.481h-5.4V69.5h5.4V41.481z"/>
	<path fill="#FFFFFF" d="M623.146,55.4c0-8.88,6.659-14.52,14.639-14.52c7.98,0,14.7,5.64,14.7,14.52s-6.72,14.699-14.7,14.699
		C629.806,70.1,623.146,64.28,623.146,55.4z M647.025,55.4c0-5.64-4.2-9.18-9.24-9.18c-5.039,0-9.239,3.54-9.239,9.18
		c0,5.7,4.2,9.42,9.239,9.42C642.825,64.82,647.025,61.101,647.025,55.4z"/>
</g>
<g>
	<path fill="#FFFFFF" d="M659.229,16.5v68h-637v-68H659.229 M666.229,9.5h-7h-637h-7v7v68v7h7h637h7v-7v-68V9.5L666.229,9.5z"/>
</g>
</svg>
