<?xml version="1.0" encoding="utf-8"?>
<!-- Generator: Adobe Illustrator 16.0.0, SVG Export Plug-In . SVG Version: 6.00 Build 0)  -->
<!DOCTYPE svg PUBLIC "-//W3C//DTD SVG 1.1//EN" "http://www.w3.org/Graphics/SVG/1.1/DTD/svg11.dtd">
<svg version="1.1" id="Layer_1" xmlns="http://www.w3.org/2000/svg" xmlns:xlink="http://www.w3.org/1999/xlink" x="0px" y="0px"
	 width="612px" height="792px" viewBox="694 416.68 612 792" enable-background="new 694 416.68 612 792" xml:space="preserve">
<path fill="#FEDD3E" d="M1203.889,686.212c-15.002,6.654-31.127,11.15-48.049,13.173c17.27-10.353,30.537-26.748,36.785-46.284
	c-16.168,9.59-34.07,16.549-53.127,20.302c-15.26-16.261-37.004-26.419-61.066-26.419c-46.201,0-83.66,37.457-83.66,83.658
	c0,6.557,0.74,12.942,2.166,19.065c-69.529-3.487-131.176-36.796-172.437-87.411c-7.203,12.355-11.328,26.729-11.328,42.061
	c0,29.025,14.77,54.632,37.219,69.634c-13.715-0.434-26.615-4.198-37.893-10.463c-0.008,0.349-0.008,0.696-0.008,1.051
	c0,40.534,28.838,74.347,67.109,82.035c-7.021,1.91-14.411,2.935-22.041,2.935c-5.391,0-10.632-0.526-15.741-1.502
	c10.646,33.235,41.542,57.426,78.152,58.098c-28.633,22.439-64.705,35.815-103.902,35.815c-6.753,0-13.413-0.397-19.957-1.171
	c37.023,23.736,80.998,37.589,128.244,37.589c153.88,0,238.03-127.478,238.03-238.035c0-3.627-0.082-7.233-0.242-10.821
	C1178.49,717.723,1192.674,702.991,1203.889,686.212"/>
</svg>
